<svg width="38" height="30" viewBox="0 0 38 30" fill="none" xmlns="http://www.w3.org/2000/svg">
<path d="M2.55555 29.9284C1.87797 29.9284 1.22814 29.6592 0.749021 29.1801C0.269899 28.701 0.00073209 28.0511 0.00073209 27.3736V2.61597C-0.00742209 2.27542 0.0526114 1.93668 0.177301 1.61967C0.301991 1.30266 0.48882 1.01378 0.726796 0.770042C0.964772 0.526299 1.24909 0.33261 1.56302 0.200367C1.87696 0.0681246 2.21417 0 2.55482 0C2.89547 0 3.23268 0.0681246 3.54662 0.200367C3.86055 0.33261 4.14487 0.526299 4.38284 0.770042C4.62082 1.01378 4.80765 1.30266 4.93234 1.61967C5.05703 1.93668 5.11706 2.27542 5.10891 2.61597V27.3736C5.1091 27.709 5.0432 28.0412 4.91496 28.3511C4.78673 28.6611 4.59868 28.9427 4.36156 29.18C4.12444 29.4173 3.8429 29.6055 3.53302 29.7339C3.22313 29.8623 2.89099 29.9284 2.55555 29.9284Z" fill="#102754"/>
<path d="M19.9782 29.8672C19.3006 29.8672 18.6507 29.5981 18.1716 29.1189C17.6925 28.6398 17.4233 27.99 17.4233 27.3124V2.55482C17.4233 1.87724 17.6925 1.22741 18.1716 0.748289C18.6507 0.269167 19.3006 0 19.9782 0C20.6557 0 21.3056 0.269167 21.7847 0.748289C22.2638 1.22741 22.533 1.87724 22.533 2.55482V27.3124C22.533 27.99 22.2638 28.6398 21.7847 29.1189C21.3056 29.5981 20.6557 29.8672 19.9782 29.8672Z" fill="#102754"/>
<path d="M11.2478 18.5411C13.093 18.5411 14.5888 17.0453 14.5888 15.2001C14.5888 13.3549 13.093 11.859 11.2478 11.859C9.40257 11.859 7.90674 13.3549 7.90674 15.2001C7.90674 17.0453 9.40257 18.5411 11.2478 18.5411Z" fill="#102754"/>
<path d="M37.084 25.942L32.0666 18.4167C34.0123 17.5098 35.5903 15.9662 36.54 14.041C37.4896 12.1158 37.754 9.92423 37.2894 7.82844C36.8248 5.73266 35.659 3.8581 33.9848 2.51456C32.3106 1.17102 30.228 0.438915 28.0814 0.439224C27.4038 0.439224 26.754 0.708392 26.2748 1.18751C25.7957 1.66663 25.5265 2.31646 25.5265 2.99404C25.5265 3.67162 25.7957 4.32145 26.2748 4.80057C26.754 5.2797 27.4038 5.54886 28.0814 5.54886C28.6557 5.53829 29.2264 5.64229 29.7601 5.85478C30.2939 6.06727 30.7799 6.38399 31.1898 6.78643C31.5997 7.18888 31.9253 7.66898 32.1476 8.1987C32.3699 8.72841 32.4844 9.2971 32.4844 9.87156C32.4844 10.446 32.3699 11.0147 32.1476 11.5444C31.9253 12.0741 31.5997 12.5542 31.1898 12.9567C30.7799 13.3591 30.2939 13.6758 29.7601 13.8883C29.2264 14.1008 28.6557 14.2048 28.0814 14.1943C28.0506 14.1943 28.0199 14.1943 27.9877 14.1943C27.5169 14.1746 27.0498 14.2856 26.6383 14.5151C26.2267 14.7445 25.8867 15.0835 25.656 15.4943C25.4253 15.9051 25.3128 16.3719 25.331 16.8427C25.3493 17.3135 25.4975 17.7701 25.7593 18.1619L32.8338 28.7721C33.0128 29.0666 33.2495 29.3219 33.5297 29.5225C33.81 29.7231 34.1279 29.865 34.4644 29.9395C34.8009 30.0141 35.149 30.0198 35.4877 29.9563C35.8265 29.8928 36.1488 29.7614 36.4355 29.57C36.7221 29.3787 36.9671 29.1313 37.1556 28.8428C37.3442 28.5543 37.4724 28.2306 37.5325 27.8913C37.5927 27.5519 37.5836 27.2039 37.5058 26.8681C37.4279 26.5324 37.283 26.2159 37.0796 25.9376L37.084 25.942Z" fill="#102754"/>
</svg>
