
<svg width="42px" height="42px" viewBox="0 0 42 42" version="1.1" xmlns="http://www.w3.org/2000/svg" xmlns:xlink="http://www.w3.org/1999/xlink">
    <g id="Page-1" stroke="none" stroke-width="1" fill="none" fill-rule="evenodd">
        <g id="Group" fill="#FFFFFF" fill-rule="nonzero">
            <path d="M10,0 C4.4886661,0 0,4.4886661 0,10 L0,32 C0,37.511334 4.4886661,42 10,42 L32,42 C37.511334,42 42,37.511334 42,32 L42,10 C42,4.4886661 37.511334,0 32,0 L10,0 Z M9,12 L33,12 C33.18,12 33.349766,12.020312 33.509766,12.070312 L23.679688,21.890625 C22.199688,23.370625 19.790547,23.370625 18.310547,21.890625 L8.490234,12.070312 C8.650234,12.020312 8.82,12 9,12 Z M7.070312,13.490234 L14.589844,21 L7.070312,28.509766 C7.020312,28.349766 7,28.18 7,28 L7,14 C7,13.82 7.020312,13.650234 7.070312,13.490234 Z M34.929688,13.490234 C34.979688,13.650234 35,13.82 35,14 L35,28 C35,28.18 34.979687,28.349766 34.929688,28.509766 L27.400391,21 L34.929688,13.490234 Z M16,22.410156 L16.890625,23.310547 C18.020625,24.440547 19.510234,25 20.990234,25 C22.480234,25 23.959844,24.440547 25.089844,23.310547 L25.990234,22.410156 L33.509766,29.929688 C33.349766,29.979688 33.18,30 33,30 L9,30 C8.82,30 8.650234,29.979687 8.490234,29.929688 L16,22.410156 Z" id="Shape"></path>
        </g>
    </g>
</svg>